<?xml version="1.0" standalone="no"?>
<!DOCTYPE svg PUBLIC "-//W3C//DTD SVG 20010904//EN"
 "http://www.w3.org/TR/2001/REC-SVG-20010904/DTD/svg10.dtd">
<svg version="1.0" xmlns="http://www.w3.org/2000/svg"
 width="96" height="96" viewBox="0 0 225.000000 225.000000"
 preserveAspectRatio="xMidYMid meet">
<g transform="translate(0.000000,225.000000) scale(0.100000,-0.100000)"
fill="#000000" stroke="none">
<path d="M140 2222 c0 -16 27 -330 60 -698 33 -368 72 -809 87 -981 l27 -312
396 -111 c217 -62 404 -112 415 -112 22 1 794 218 802 225 3 3 183 1982 183
2014 0 2 -443 3 -985 3 l-985 0 0 -28z m1607 -429 c-4 -27 -9 -83 -13 -125
l-7 -78 -475 0 -474 0 6 -87 c4 -49 9 -105 12 -125 l6 -38 450 0 451 0 -6 -57
c-3 -32 -18 -204 -33 -383 -15 -179 -29 -327 -30 -329 -4 -5 -496 -141 -511
-141 -22 0 -497 132 -507 141 -8 8 -34 272 -36 362 l0 37 124 0 124 0 7 -77
c11 -138 -3 -123 151 -164 l135 -36 127 35 c70 18 132 39 138 45 9 10 34 224
34 290 0 16 -27 17 -428 17 l-428 0 -32 368 c-18 202 -33 373 -32 380 0 9 132
12 626 12 l627 0 -6 -47z"/>
</g>
</svg>
