<?xml version="1.0" standalone="no"?>
<!DOCTYPE svg PUBLIC "-//W3C//DTD SVG 20010904//EN"
 "http://www.w3.org/TR/2001/REC-SVG-20010904/DTD/svg10.dtd">
<svg version="1.0" xmlns="http://www.w3.org/2000/svg"
 width="96" height="96" viewBox="0 0 600.000000 600.000000"
 preserveAspectRatio="xMidYMid meet">
<g transform="translate(0.000000,600.000000) scale(0.100000,-0.100000)"
fill="#000000" stroke="none">
<path d="M1760 5420 c-155 -29 -255 -111 -329 -270 -114 -244 -120 -652 -17
-1116 l32 -142 -96 -27 c-249 -71 -532 -197 -710 -316 -176 -118 -313 -271
-362 -404 -30 -83 -30 -207 1 -288 108 -278 484 -547 1004 -716 69 -23 133
-41 142 -41 19 0 19 2 -10 -127 -67 -296 -92 -610 -65 -819 32 -255 133 -453
267 -527 296 -160 786 23 1293 484 l96 87 99 -91 c210 -190 389 -319 575 -412
192 -96 326 -130 489 -123 89 3 105 7 174 41 149 74 245 233 292 487 44 237
22 597 -55 919 -11 46 -19 85 -18 86 2 1 57 19 123 39 498 158 872 404 1000
658 61 122 69 222 26 343 -64 183 -277 375 -586 528 -137 69 -346 150 -480
188 -44 12 -84 26 -89 30 -5 4 1 46 13 96 98 405 105 824 17 1082 -57 164
-158 287 -273 331 -71 27 -205 37 -294 21 -269 -46 -632 -261 -931 -549 l-87
-84 -89 81 c-300 275 -603 461 -863 529 -89 24 -226 34 -289 22z m287 -136
c228 -65 551 -269 795 -503 l78 -74 -63 -66 c-123 -131 -374 -444 -451 -562
-14 -23 -26 -28 -84 -33 -226 -23 -483 -63 -656 -102 -60 -13 -110 -23 -111
-22 -7 9 -58 242 -77 353 -18 109 -22 168 -22 360 0 216 2 236 26 326 57 211
136 311 272 346 69 17 185 8 293 -23z m2252 1 c216 -118 294 -542 201 -1085
-20 -116 -54 -267 -62 -275 -2 -2 -91 13 -197 35 -107 21 -294 51 -415 66
l-221 27 -75 105 c-97 135 -228 298 -353 440 l-101 114 89 81 c300 278 611
467 850 517 22 5 83 8 135 7 84 -2 101 -6 149 -32z m-1149 -825 c100 -116 314
-391 308 -395 -2 -1 -106 3 -231 8 -153 7 -306 7 -460 0 -128 -6 -233 -10
-234 -9 -10 7 306 396 424 522 l38 40 24 -20 c13 -12 72 -77 131 -146z m325
-509 l69 -6 63 -95 c106 -158 275 -444 383 -648 l103 -193 -19 -42 c-27 -62
-173 -336 -239 -452 -61 -107 -249 -410 -275 -445 -15 -20 -31 -22 -196 -32
-180 -10 -848 -4 -892 8 -49 14 -329 468 -508 827 l-64 128 74 147 c127 249
391 693 464 781 15 19 34 22 182 30 166 10 724 5 855 -8z m-1187 -43 c-121
-185 -275 -447 -379 -645 -35 -68 -67 -123 -70 -123 -22 0 -264 658 -248 674
9 9 313 67 449 85 80 11 156 22 170 24 14 3 40 5 59 6 32 1 33 0 19 -21z
m1662 -9 c151 -22 425 -75 446 -87 20 -11 -66 -263 -193 -564 -25 -60 -48
-108 -51 -108 -4 0 -30 46 -59 103 -91 178 -260 467 -388 661 l-19 29 64 -7
c36 -4 126 -16 200 -27z m-2302 -599 c27 -69 68 -165 90 -214 l40 -88 -45
-102 c-69 -154 -166 -405 -214 -556 -24 -74 -45 -137 -46 -139 -4 -6 -263 79
-353 116 -356 147 -623 348 -716 537 -34 70 -39 89 -39 150 0 56 6 83 27 129
111 237 454 460 943 612 l139 43 62 -181 c33 -100 84 -238 112 -307z m3055
426 c192 -65 336 -127 469 -202 266 -150 436 -334 454 -490 26 -213 -232 -473
-661 -666 -128 -58 -427 -161 -436 -150 -3 4 -23 59 -43 122 -48 147 -132 359
-209 528 l-60 134 22 51 c98 223 170 406 219 553 35 108 62 173 70 174 8 0 86
-24 175 -54z m-470 -1033 c70 -166 166 -424 181 -485 6 -26 4 -27 -62 -42
-166 -37 -649 -113 -659 -102 -1 1 40 69 91 151 105 168 249 422 320 563 25
50 48 92 50 92 2 0 38 -80 79 -177z m-2354 100 c78 -160 266 -485 373 -645 50
-75 56 -88 39 -88 -91 0 -690 96 -707 113 -13 12 239 687 256 687 3 0 21 -30
39 -67z m2605 -855 c47 -210 59 -319 60 -538 0 -251 -19 -362 -89 -506 -76
-158 -163 -215 -327 -215 -193 0 -442 109 -711 312 -108 81 -303 252 -321 281
-9 15 -2 27 40 70 103 106 324 385 433 546 39 58 44 62 81 62 114 0 767 104
789 126 9 9 19 -21 45 -138z m-2791 97 c143 -28 437 -71 552 -80 150 -11 133
-1 243 -148 116 -156 250 -319 356 -436 42 -46 76 -87 76 -91 0 -4 -35 -40
-77 -80 -242 -226 -515 -401 -753 -481 -86 -29 -107 -32 -220 -33 -117 -1
-128 1 -175 26 -123 65 -204 215 -234 432 -16 111 -14 341 4 485 24 190 77
431 96 431 5 0 65 -11 132 -25z m1759 -120 c-36 -63 -272 -359 -409 -513 l-38
-44 -70 78 c-134 150 -326 385 -378 464 l-16 25 459 0 c302 0 456 -3 452 -10z"/>
<path d="M2891 3500 c-86 -18 -190 -76 -255 -143 -197 -201 -195 -511 3 -707
105 -104 214 -150 356 -150 134 0 244 43 342 134 279 259 184 722 -175 847
-66 23 -205 33 -271 19z m252 -130 c80 -30 167 -113 209 -198 31 -62 33 -74
33 -167 0 -91 -3 -106 -31 -165 -41 -86 -108 -153 -192 -193 -61 -29 -75 -32
-167 -32 -91 0 -106 3 -165 31 -83 39 -154 110 -194 194 -28 60 -31 73 -30
165 0 86 4 108 26 157 29 63 101 146 155 179 100 62 241 73 356 29z"/>
</g>
</svg>
