<?xml version="1.0" standalone="no"?>
<!DOCTYPE svg PUBLIC "-//W3C//DTD SVG 20010904//EN"
 "http://www.w3.org/TR/2001/REC-SVG-20010904/DTD/svg10.dtd">
<svg version="1.0" xmlns="http://www.w3.org/2000/svg"
 width="96" height="96" viewBox="0 0 1280.000000 498.000000"
 preserveAspectRatio="xMidYMid meet">
<g transform="translate(0.000000,498.000000) scale(0.100000,-0.100000)"
fill="#FF0000" stroke="none">
<path d="M0 2845 l0 -2135 1775 0 1775 0 0 -355 0 -355 1425 0 1425 0 0 355 0
355 3200 0 3200 0 0 2135 0 2135 -6400 0 -6400 0 0 -2135z m3560 0 l0 -1425
-360 0 -360 0 0 1065 0 1065 -350 0 -350 0 0 -1065 0 -1065 -715 0 -715 0 0
1425 0 1425 1425 0 1425 0 0 -1425z m3550 0 l0 -1425 -710 0 -710 0 0 -355 0
-355 -715 0 -715 0 0 1780 0 1780 1425 0 1425 0 0 -1425z m4980 0 l0 -1425
-357 2 -358 3 -3 1063 -2 1062 -350 0 -350 0 0 -1065 0 -1065 -360 0 -360 0 0
1065 0 1065 -350 0 -350 0 0 -1065 0 -1065 -715 0 -715 0 0 1425 0 1425 2135
0 2135 0 0 -1425z"/>
<path d="M5690 2845 l0 -705 355 0 355 0 0 705 0 705 -355 0 -355 0 0 -705z"/>
</g>
</svg>
