<?xml version="1.0" standalone="no"?>
<!DOCTYPE svg PUBLIC "-//W3C//DTD SVG 20010904//EN"
 "http://www.w3.org/TR/2001/REC-SVG-20010904/DTD/svg10.dtd">
<svg version="1.0" xmlns="http://www.w3.org/2000/svg"
 width="96" height="96" viewBox="0 0 310.000000 162.000000"
 preserveAspectRatio="xMidYMid meet">
<g transform="translate(0.000000,162.000000) scale(0.100000,-0.100000)"
fill="#1DA1F2" stroke="none">
<path d="M605 1431 c-103 -29 -184 -79 -270 -166 -92 -92 -136 -166 -165 -281
-82 -319 99 -648 414 -751 116 -37 266 -37 382 0 124 41 239 121 309 216 84
116 125 238 125 381 0 284 -192 533 -467 604 -82 22 -249 20 -328 -3z m250
-206 c14 -13 25 -28 25 -33 0 -5 13 -12 29 -15 40 -8 54 -57 50 -163 -3 -60
-10 -92 -30 -131 l-26 -53 22 -32 c27 -41 45 -92 45 -129 0 -16 3 -29 6 -29 3
0 25 11 48 25 23 14 63 28 89 31 40 6 48 3 71 -19 30 -30 34 -68 9 -89 -17
-13 -224 -117 -305 -152 -61 -27 -333 -21 -400 8 -10 4 -20 18 -23 29 -4 12
-14 38 -22 57 -23 49 -21 114 4 148 11 15 23 48 26 75 8 55 29 101 63 138 21
22 23 30 14 53 -5 15 -10 41 -10 57 0 32 25 89 39 89 4 0 25 14 46 30 21 17
55 35 76 42 22 6 41 19 44 29 7 22 52 59 72 59 8 0 25 -11 38 -25z"/>
<path d="M783 1160 c-15 -33 -23 -40 -49 -40 -41 0 -139 -70 -148 -106 -5 -17
0 -40 12 -65 l19 -38 -29 -28 c-42 -39 -68 -95 -68 -144 0 -30 -7 -50 -26 -72
-22 -26 -25 -38 -21 -76 3 -25 12 -50 21 -57 9 -6 14 -18 10 -27 -4 -11 2 -20
19 -28 39 -18 72 -4 88 36 10 25 18 32 27 26 11 -7 11 -12 1 -28 -7 -11 -9
-28 -5 -38 6 -16 17 -17 114 -12 68 3 120 11 142 22 197 92 269 132 270 148 0
30 -64 21 -134 -18 -35 -19 -73 -35 -85 -35 -19 0 -21 4 -15 39 9 54 -18 140
-55 175 l-29 28 28 45 c36 57 54 131 47 199 -7 67 -13 77 -36 64 -15 -8 -21
-3 -36 30 -10 22 -24 40 -31 40 -7 0 -21 -18 -31 -40z"/>
<path d="M2232 1098 c-19 -19 -14 -53 9 -74 20 -17 21 -26 16 -99 -8 -100 -21
-147 -52 -182 -20 -23 -27 -26 -42 -17 -15 9 -18 27 -21 114 -3 110 -10 130
-48 130 -24 0 -24 -1 -24 -103 0 -90 -3 -106 -20 -125 -25 -27 -41 -28 -71 -3
-21 16 -24 27 -22 80 2 106 60 180 150 191 51 6 63 19 37 44 -34 35 -155 -9
-202 -73 -30 -41 -52 -104 -52 -150 0 -34 -47 -132 -70 -146 -7 -4 -10 52 -10
168 0 156 -2 176 -18 190 -10 10 -26 17 -34 17 -14 0 -17 -19 -20 -122 -2 -96
-7 -131 -22 -161 -25 -51 -58 -67 -86 -42 -16 15 -20 31 -20 89 0 63 17 160
35 209 6 14 2 17 -24 17 -36 0 -44 -13 -59 -95 -28 -156 -23 -224 19 -266 31
-31 90 -26 128 13 l31 32 0 -65 c0 -63 -1 -66 -41 -104 -49 -48 -78 -106 -79
-158 0 -81 58 -133 120 -107 49 20 64 60 68 185 4 107 5 111 36 145 17 19 39
46 48 59 l17 24 27 -22 c32 -25 90 -28 122 -5 20 14 24 14 44 0 12 -9 40 -16
61 -16 56 0 99 46 126 134 12 37 21 81 21 96 0 15 3 42 6 59 6 29 9 31 49 31
l43 0 -20 -62 c-12 -37 -21 -93 -22 -135 -1 -63 2 -74 23 -97 31 -33 96 -36
134 -6 25 20 25 20 30 0 3 -13 14 -20 30 -20 24 0 24 1 29 108 4 83 9 116 25
147 39 74 83 105 97 69 3 -9 6 -73 6 -143 0 -115 2 -131 21 -155 27 -34 84
-36 124 -4 51 40 84 148 50 162 -11 4 -19 -3 -26 -22 -36 -92 -67 -128 -91
-104 -9 9 -15 60 -18 159 -5 144 -5 146 -32 166 -43 32 -90 11 -140 -63 l-17
-25 0 37 c-1 36 -27 64 -52 56 -5 -2 -10 -59 -12 -128 -2 -95 -7 -133 -20
-157 -22 -42 -50 -57 -77 -43 -27 14 -27 90 0 195 29 112 26 117 -78 128 -31
4 -48 13 -63 31 -22 28 -57 34 -77 14z"/>
</g>
</svg>
