<?xml version="1.0" standalone="no"?>
<!DOCTYPE svg PUBLIC "-//W3C//DTD SVG 20010904//EN"
 "http://www.w3.org/TR/2001/REC-SVG-20010904/DTD/svg10.dtd">
<svg version="1.0" xmlns="http://www.w3.org/2000/svg"
 width="96" height="96" viewBox="0 0 161.000000 128.000000"
 preserveAspectRatio="xMidYMid meet">
<metadata>
Created by potrace 1.15, written by Peter Selinger 2001-2017
</metadata>
<g transform="translate(0.000000,128.000000) scale(0.100000,-0.100000)"
fill="#000000" stroke="none">
<path d="M878 988 l-228 -132 0 -83 c0 -46 2 -83 6 -83 3 0 67 36 142 79 75
44 145 83 155 87 15 6 17 -2 17 -84 l0 -89 -155 -89 c-85 -49 -155 -91 -155
-94 1 -3 33 -23 73 -45 l72 -40 153 89 152 88 0 264 c0 145 -1 264 -2 264 -2
0 -105 -60 -230 -132z"/>
<path d="M1350 1082 l-65 -38 -5 -87 c-3 -48 -3 -87 -1 -87 3 0 35 18 73 40
l68 41 0 84 c0 47 -1 85 -2 85 -2 0 -32 -17 -68 -38z"/>
<path d="M1341 720 l-64 -39 2 -84 c2 -68 -1 -86 -15 -97 -9 -8 -80 -51 -158
-96 l-141 -82 -3 -87 c-1 -48 1 -85 5 -82 4 2 108 62 231 132 l222 128 0 174
c0 95 -3 173 -7 172 -5 0 -37 -18 -72 -39z"/>
</g>
</svg>
