<?xml version="1.0" standalone="no"?>
<!DOCTYPE svg PUBLIC "-//W3C//DTD SVG 20010904//EN"
 "http://www.w3.org/TR/2001/REC-SVG-20010904/DTD/svg10.dtd">
<svg version="1.0" xmlns="http://www.w3.org/2000/svg"
 width="32" height="32" viewBox="0 0 200.000000 200.000000"
 preserveAspectRatio="xMidYMid meet">
<g transform="translate(0.000000,200.000000) scale(0.100000,-0.100000)"
fill="#ff0000" stroke="none">
<path d="M835 1489 c-16 -7 -45 -22 -62 -36 -26 -19 -33 -21 -33 -8 0 14 -23
15 -192 13 l-193 -3 -3 -177 -2 -178 40 0 41 0 -3 -117 -3 -118 -37 -3 -38 -3
0 -170 0 -169 658 2 657 3 0 165 0 165 -37 3 -37 3 -3 222 c-3 254 -8 270 -93
345 -102 90 -253 95 -355 13 l-38 -30 -18 21 c-48 53 -179 83 -249 57z m190
-94 c22 -12 48 -32 59 -44 l19 -20 17 22 c10 12 40 33 66 47 92 46 206 27 276
-47 53 -55 58 -83 58 -318 l0 -215 40 0 41 0 -3 -117 -3 -118 -265 0 -265 0
-5 63 c-4 51 -10 68 -29 83 -30 24 -52 24 -84 -1 -22 -18 -26 -30 -29 -83 l-3
-62 -245 0 -245 0 -3 118 -3 117 41 0 40 0 -2 163 -3 162 -37 3 -38 3 0 115
c0 111 0 114 23 114 53 1 243 1 255 1 6 -1 12 -12 12 -26 0 -14 2 -25 4 -25 2
0 20 16 40 35 71 67 187 80 271 30z"/>
<path d="M784 1137 c-2 -7 -3 -80 -2 -162 l3 -150 33 -3 32 -3 0 165 0 166
-30 0 c-17 0 -33 -6 -36 -13z"/>
<path d="M1127 1143 c-4 -3 -7 -78 -7 -165 l0 -158 35 0 35 0 0 165 0 165 -28
0 c-16 0 -32 -3 -35 -7z"/>
</g>
</svg>
