<?xml version="1.0" standalone="no"?>
<!DOCTYPE svg PUBLIC "-//W3C//DTD SVG 20010904//EN"
 "http://www.w3.org/TR/2001/REC-SVG-20010904/DTD/svg10.dtd">
<svg version="1.0" xmlns="http://www.w3.org/2000/svg"
 width="310.000000pt" height="274.000000pt" viewBox="0 0 310.000000 274.000000"
 preserveAspectRatio="xMidYMid meet">
<metadata>
Created by potrace 1.15, written by Peter Selinger 2001-2017
</metadata>
<g transform="translate(0.000000,274.000000) scale(0.100000,-0.100000)"
fill="#000000" stroke="none">
<path d="M1290 2540 c-185 -21 -376 -78 -442 -132 -70 -58 -96 -361 -52 -618
44 -258 147 -445 356 -645 105 -101 188 -162 310 -229 l67 -37 52 27 c235 119
473 354 586 579 39 76 77 197 99 311 34 175 17 491 -30 583 -32 60 -215 128
-424 155 -110 15 -409 18 -522 6z m254 -152 c7 -18 41 -64 75 -103 33 -38 61
-76 61 -82 0 -7 7 -13 15 -13 8 0 15 -5 15 -10 0 -6 11 -28 25 -50 14 -22 25
-47 25 -55 0 -9 4 -14 8 -11 5 3 15 -20 22 -52 7 -31 18 -62 23 -69 15 -20 22
-133 8 -133 -9 0 -9 -5 0 -22 15 -27 13 -150 -3 -159 -6 -4 -22 -5 -35 -3 -20
4 -23 0 -23 -26 0 -30 13 -40 25 -20 9 15 24 2 22 -20 -1 -14 -4 -16 -14 -8
-9 7 -17 7 -28 -2 -23 -19 -47 -7 -60 30 -11 33 -14 35 -62 38 -51 3 -51 3
-57 -32 -4 -19 -11 -36 -15 -38 -12 -4 -31 -179 -27 -239 2 -25 11 -60 20 -78
14 -26 15 -39 7 -63 -6 -17 -11 -60 -11 -96 0 -54 -2 -63 -16 -58 -9 3 -18 6
-20 6 -2 0 -4 29 -4 65 0 75 -15 111 -59 146 -17 13 -31 27 -31 30 0 3 -22 28
-49 56 -53 55 -138 214 -145 271 -3 17 -7 36 -11 41 -3 6 -8 47 -11 91 -9 151
48 362 133 489 34 50 163 201 180 210 2 0 9 -14 17 -31z"/>
<path d="M2367 602 c14 -9 16 -39 14 -180 -1 -96 -2 -103 -23 -112 -16 -6 4
-8 67 -8 50 1 74 3 55 5 -52 7 -60 18 -60 89 l0 64 43 0 c71 0 110 -45 87
-104 -13 -35 13 -36 36 -1 15 23 12 85 -4 85 -4 1 -18 10 -31 21 l-24 20 21
20 c29 26 29 73 0 93 -13 10 -41 16 -68 15 l-45 -1 39 -8 c38 -7 66 -31 66
-56 0 -34 -24 -64 -56 -70 -59 -11 -66 -2 -62 71 l3 65 -35 0 c-20 0 -30 -4
-23 -8z"/>
<path d="M510 503 c-8 -2 -22 -7 -30 -9 -13 -5 -12 -7 3 -15 14 -8 17 -24 17
-84 0 -60 -3 -76 -17 -84 -14 -8 -5 -10 37 -10 42 0 51 2 38 10 -14 8 -18 24
-18 77 0 74 10 92 50 92 40 0 50 -18 50 -92 0 -53 -4 -69 -17 -77 -14 -8 -6
-10 35 -11 49 0 52 1 38 16 -19 19 -22 134 -4 152 15 15 61 15 76 0 7 -7 12
-40 12 -80 0 -53 -4 -69 -17 -77 -14 -8 -3 -10 42 -10 50 0 56 2 38 11 -21 10
-23 18 -23 82 0 109 -37 141 -114 101 -26 -14 -31 -14 -46 0 -21 19 -60 19
-88 -1 -20 -14 -23 -14 -28 0 -6 17 -10 18 -34 9z"/>
<path d="M951 496 c-69 -38 -67 -162 4 -194 34 -16 58 -15 101 3 66 27 82 128
29 181 -28 28 -93 32 -134 10z m98 -32 c45 -58 18 -161 -40 -152 -30 4 -69 62
-69 102 0 72 68 103 109 50z"/>
<path d="M1188 503 c-31 -5 -37 -18 -13 -27 23 -8 21 -151 -2 -164 -12 -7 -3
-11 36 -13 52 -4 75 4 46 15 -22 8 -22 151 1 160 54 21 84 -13 84 -95 0 -41
-4 -58 -15 -63 -32 -12 -13 -21 37 -17 45 3 50 5 35 16 -13 9 -17 27 -17 76 0
82 -15 113 -57 117 -18 2 -42 -2 -55 -9 -16 -9 -23 -9 -26 0 -2 6 -9 10 -15
10 -7 -1 -24 -4 -39 -6z"/>
<path d="M1493 500 c-48 -19 -57 -88 -18 -124 l25 -23 -22 -16 c-23 -16 -23
-17 -3 -32 20 -16 20 -16 -7 -36 -56 -41 -21 -99 61 -99 79 0 145 62 124 117
-7 18 -45 33 -86 33 -18 0 -38 4 -46 9 -16 10 -6 31 14 31 44 0 85 43 85 89 0
10 9 21 20 24 36 9 21 24 -32 31 -67 8 -88 7 -115 -4z"/>
<path d="M1741 496 c-69 -38 -67 -162 4 -194 35 -16 60 -15 102 5 67 31 81
128 26 179 -30 27 -92 32 -132 10z m98 -32 c26 -33 29 -109 4 -136 -38 -42
-100 -2 -110 71 -11 82 59 124 106 65z"/>
</g>
</svg>
