<?xml version="1.0" standalone="no"?>
<!DOCTYPE svg PUBLIC "-//W3C//DTD SVG 20010904//EN"
 "http://www.w3.org/TR/2001/REC-SVG-20010904/DTD/svg10.dtd">
<svg version="1.0" xmlns="http://www.w3.org/2000/svg"
 width="96" height="96" viewBox="0 0 318.000000 318.000000"
 preserveAspectRatio="xMidYMid meet">
<metadata>
Created by potrace 1.15, written by Peter Selinger 2001-2017
</metadata>
<g transform="translate(0.000000,318.000000) scale(0.100000,-0.100000)"
fill="#000000" stroke="none">
<path d="M2025 2648 c-36 -165 -98 -406 -116 -453 -28 -77 -76 -162 -94 -169
-8 -3 -12 -11 -10 -18 3 -8 -24 -46 -61 -86 -49 -54 -61 -72 -47 -72 22 0 101
48 123 74 13 17 14 17 22 -1 7 -17 7 -16 5 2 -1 11 8 36 20 56 13 20 24 45 26
55 1 11 14 35 27 54 15 22 25 50 27 79 2 45 60 264 76 289 5 6 19 12 33 12 24
0 24 1 24 100 0 100 0 100 -25 100 -17 0 -26 -7 -30 -22z"/>
<path d="M1936 2463 c-3 -10 -17 -68 -31 -130 -16 -71 -35 -126 -51 -150 -14
-21 -28 -49 -31 -63 -2 -14 -15 -30 -29 -37 -23 -10 -24 -9 -25 20 -1 26 -3
27 -6 8 -5 -27 -260 -288 -371 -380 -41 -34 -68 -61 -62 -61 7 0 70 53 142
118 71 64 146 130 166 145 20 16 55 45 77 66 22 21 56 50 75 64 51 38 94 132
130 281 16 71 28 131 26 133 -2 3 -7 -4 -10 -14z"/>
<path d="M1522 2253 c-45 -46 -101 -96 -123 -113 l-41 -29 26 -7 c39 -10 68 2
119 47 36 31 47 37 47 23 0 -10 -8 -27 -17 -38 -10 -12 -11 -15 -3 -8 8 6 18
12 23 12 4 0 5 -6 1 -12 -4 -7 13 5 37 28 24 22 69 60 99 84 77 61 81 66 33
40 -23 -13 -66 -43 -95 -66 -41 -34 -54 -41 -60 -29 -5 8 1 27 17 51 14 21 25
51 25 70 0 19 -1 33 -2 32 -2 -1 -40 -39 -86 -85z"/>
<path d="M1770 2234 c-25 -25 -79 -77 -121 -114 -73 -65 -76 -68 -54 -78 30
-14 65 5 133 71 58 57 95 117 90 148 -3 17 -10 13 -48 -27z"/>
</g>
</svg>
