<?xml version="1.0" standalone="no"?>
<!DOCTYPE svg PUBLIC "-//W3C//DTD SVG 20010904//EN"
 "http://www.w3.org/TR/2001/REC-SVG-20010904/DTD/svg10.dtd">
<svg version="1.0" xmlns="http://www.w3.org/2000/svg"
 width="96" height="96" viewBox="0 0 512.000000 512.000000"
 preserveAspectRatio="xMidYMid meet">
<metadata>
Created by potrace 1.15, written by Peter Selinger 2001-2017
</metadata>
<g transform="translate(0.000000,512.000000) scale(0.100000,-0.100000)"
fill="#000000" stroke="none">
<path d="M3109 2662 c-181 -60 -268 -228 -213 -412 35 -118 107 -183 301 -270
179 -81 213 -109 213 -176 0 -76 -60 -119 -165 -118 -58 0 -79 5 -123 29 -31
17 -66 47 -84 72 -17 23 -34 41 -37 39 -61 -31 -191 -110 -191 -116 0 -13 59
-89 97 -125 149 -139 450 -161 619 -44 114 78 162 248 112 391 -36 103 -127
178 -319 263 -143 63 -175 86 -190 134 -23 77 24 135 110 135 57 -1 103 -24
134 -68 l23 -35 92 60 c51 33 92 64 92 68 0 16 -59 90 -92 115 -66 50 -126 69
-228 73 -73 2 -108 -1 -151 -15z"/>
<path d="M2430 2231 c0 -479 -2 -503 -56 -531 -35 -20 -116 -16 -149 6 -16 10
-40 37 -55 61 l-27 42 -94 -56 c-52 -31 -96 -58 -98 -59 -11 -9 28 -72 70
-115 59 -60 131 -95 224 -108 177 -25 332 43 393 172 37 79 43 160 40 602 l-3
420 -122 3 -123 3 0 -440z"/>
</g>
</svg>
