<?xml version="1.0" standalone="no"?>
<!DOCTYPE svg PUBLIC "-//W3C//DTD SVG 20010904//EN"
 "http://www.w3.org/TR/2001/REC-SVG-20010904/DTD/svg10.dtd">
<svg version="1.0" xmlns="http://www.w3.org/2000/svg"
 width="96" height="96" viewBox="0 0 150.000000 150.000000"
 preserveAspectRatio="xMidYMid meet">
<metadata>
Created by potrace 1.15, written by Peter Selinger 2001-2017
</metadata>
<g transform="translate(0.000000,150.000000) scale(0.100000,-0.100000)"
fill="#000000" stroke="none">
<path d="M920 681 c0 -62 -2 -69 -18 -64 -10 2 -40 -8 -66 -24 l-47 -28 3 -59
3 -59 50 -28 50 -28 48 29 47 30 0 138 0 139 -25 11 c-14 7 -30 12 -35 12 -6
0 -10 -31 -10 -69z"/>
<path d="M301 598 l-51 -30 0 -74 c0 -41 2 -74 5 -74 4 0 19 7 35 15 26 13 30
21 30 55 0 44 22 65 52 49 13 -7 18 -22 18 -48 0 -30 6 -42 25 -55 13 -9 27
-16 30 -16 3 0 5 35 3 77 l-3 77 -46 27 -46 27 -52 -30z"/>
<path d="M1102 593 l-43 -26 3 -59 c3 -59 3 -60 49 -86 42 -23 49 -24 78 -13
17 8 31 17 31 21 0 5 -19 19 -42 32 -45 24 -58 49 -38 73 15 18 50 3 50 -20 0
-19 20 -19 48 1 34 24 27 49 -22 78 -54 32 -60 32 -114 -1z"/>
</g>
</svg>
