<?xml version="1.0" standalone="no"?>
<!DOCTYPE svg PUBLIC "-//W3C//DTD SVG 20010904//EN"
 "http://www.w3.org/TR/2001/REC-SVG-20010904/DTD/svg10.dtd">
<svg version="1.0" xmlns="http://www.w3.org/2000/svg"
 width="96" height="96" viewBox="0 0 652.000000 652.000000"
 preserveAspectRatio="xMidYMid meet">
<metadata>
Created by potrace 1.15, written by Peter Selinger 2001-2017
</metadata>
<g transform="translate(0.000000,652.000000) scale(0.100000,-0.100000)"
fill="#000000" stroke="none">
<path d="M4173 5393 c-26 -3 -34 -10 -39 -31 -4 -15 -15 -61 -25 -102 -10 -41
-23 -101 -29 -132 -6 -32 -15 -58 -19 -58 -3 0 -7 -8 -8 -17 -6 -82 -104 -483
-135 -553 -6 -14 -11 -28 -10 -32 3 -15 -134 -282 -166 -322 -20 -26 -93 -51
-78 -28 10 17 -6 15 -30 -3 -18 -13 -15 -14 28 -15 41 0 47 -2 41 -17 -11 -33
-86 -123 -176 -215 -66 -67 -86 -93 -76 -99 19 -11 55 -1 117 33 60 33 77 46
137 106 41 40 44 41 48 20 2 -13 3 -9 1 9 -1 17 0 33 4 35 11 5 66 91 79 123
6 17 12 42 12 56 1 15 20 51 46 85 53 68 69 119 61 195 -3 34 -1 60 6 67 5 5
19 43 29 84 10 40 32 120 49 178 17 58 35 123 41 145 31 125 24 115 79 115 85
0 80 -11 80 196 0 204 7 186 -67 177z"/>
<path d="M3140 4591 c-159 -161 -275 -263 -320 -279 -22 -8 -22 -8 5 -26 70
-46 170 -5 313 128 l42 40 0 -35 c0 -23 -11 -50 -32 -80 l-31 -44 42 40 c43
40 43 40 37 97 -3 33 -1 60 4 63 6 4 26 31 46 62 40 62 60 164 33 162 -8 -1
-70 -58 -139 -128z"/>
<path d="M3585 4506 c-55 -56 -152 -149 -215 -206 -107 -97 -142 -134 -109
-115 11 6 12 5 2 -6 -20 -20 -16 -28 20 -34 21 -4 47 -1 69 8 113 47 275 214
329 337 14 34 24 120 13 119 -5 -1 -54 -47 -109 -103z"/>
<path d="M3596 4268 c-7 -36 -42 -77 -159 -183 -43 -38 -99 -97 -125 -130 -76
-97 -200 -216 -406 -390 -190 -160 -184 -154 -161 -154 11 -1 43 20 70 45 28
26 82 73 120 106 94 81 209 186 306 281 44 42 86 77 93 77 8 0 51 35 98 78 90
83 198 175 253 217 17 14 15 14 -20 0 -21 -9 -48 -23 -59 -33 -18 -16 -19 -16
-12 11 11 44 18 107 13 107 -3 0 -8 -15 -11 -32z"/>
</g>
</svg>
