<?xml version="1.0" standalone="no"?>
<!DOCTYPE svg PUBLIC "-//W3C//DTD SVG 20010904//EN"
 "http://www.w3.org/TR/2001/REC-SVG-20010904/DTD/svg10.dtd">
<svg version="1.0" xmlns="http://www.w3.org/2000/svg"
 width="1843.000000pt" height="1129.000000pt" viewBox="0 0 1843.000000 1129.000000"
 preserveAspectRatio="xMidYMid meet">
<metadata>
Created by potrace 1.15, written by Peter Selinger 2001-2017
</metadata>
<g transform="translate(0.000000,1129.000000) scale(0.100000,-0.100000)"
fill="#000000" stroke="none">
<path d="M12318 11261 l-33 -29 -5 -1395 c-5 -1514 -2 -1427 -60 -1427 -18 0
-118 52 -272 140 -262 150 -304 166 -380 141 -57 -19 -1828 -1045 -1864 -1081
-18 -17 -39 -48 -46 -68 -10 -30 -13 -256 -13 -1107 l0 -1070 22 -40 c11 -22
32 -50 45 -61 12 -12 430 -257 928 -545 l905 -523 75 -4 75 -3 200 115 c1488
857 1650 952 1680 995 l30 43 3 2601 c3 2875 8 2649 -61 2714 -17 18 -275 167
-571 332 -601 336 -591 332 -658 272z m-378 -4247 c168 -97 313 -183 323 -191
16 -15 17 -46 17 -378 0 -274 -3 -365 -12 -377 -19 -23 -624 -368 -645 -368
-10 0 -160 82 -333 183 l-315 182 -3 372 c-2 346 -1 374 15 388 31 26 617 363
633 364 9 1 153 -78 320 -175z"/>
<path d="M1895 8737 c-66 -31 -1812 -1040 -1833 -1060 -13 -12 -33 -39 -43
-59 -18 -36 -19 -81 -19 -1457 l0 -1421 28 -30 c19 -22 39 -33 68 -37 39 -5
65 8 570 297 291 166 544 312 562 324 18 11 45 39 60 60 l27 39 5 706 c5 698
5 706 26 746 12 22 30 48 41 57 36 33 525 308 559 314 19 3 52 2 74 -4 46 -11
502 -272 543 -311 65 -60 62 -17 67 -786 5 -693 5 -700 27 -740 11 -22 32 -49
45 -61 12 -12 268 -161 568 -333 384 -219 554 -311 575 -311 47 0 92 33 105
77 8 27 10 442 8 1439 l-3 1401 -30 48 c-29 48 -50 60 -950 578 l-920 530 -65
4 c-42 2 -76 -1 -95 -10z"/>
<path d="M16415 8721 c-16 -4 -41 -13 -55 -21 -40 -21 -1773 -1021 -1798
-1038 -13 -8 -35 -36 -50 -61 l-27 -46 -3 -1063 c-2 -746 1 -1076 9 -1104 22
-84 42 -97 964 -621 479 -272 886 -502 905 -512 23 -12 57 -19 96 -19 l62 0
548 305 c302 167 562 315 577 329 40 36 47 94 15 138 -18 26 -222 147 -926
551 -528 303 -910 528 -920 542 -15 22 -17 59 -17 369 0 307 2 349 17 372 10
15 124 87 295 185 331 191 316 183 345 183 29 0 595 -322 626 -356 22 -25 22
-29 22 -300 0 -295 4 -325 51 -358 59 -41 65 -38 638 295 295 171 551 322 569
336 18 13 41 42 52 63 19 37 20 59 20 358 l0 318 -26 39 c-14 22 -35 47 -47
56 -23 16 -1740 1014 -1792 1042 -38 19 -111 28 -150 18z"/>
<path d="M8700 7644 c12 -20 -7 -60 -230 -465 -341 -624 -351 -642 -360 -632
-5 4 -38 58 -74 118 l-66 110 0 -948 0 -948 23 12 c146 78 660 368 687 387 49
37 68 61 81 103 11 36 9 40 -85 203 -53 91 -99 173 -103 182 -4 10 30 -2 95
-35 56 -28 104 -51 107 -51 3 0 4 420 3 933 l-3 932 -27 46 c-15 25 -35 52
-44 60 -16 13 -16 12 -4 -7z"/>
<path d="M5225 5924 l-347 -596 28 -28 c36 -34 1793 -1046 1843 -1061 20 -6
47 -9 59 -7 20 3 18 10 -42 118 -34 63 -316 576 -626 1140 -309 564 -563 1026
-565 1028 -1 1 -158 -266 -350 -594z"/>
</g>
</svg>
