<?xml version="1.0" standalone="no"?>
<!DOCTYPE svg PUBLIC "-//W3C//DTD SVG 20010904//EN"
 "http://www.w3.org/TR/2001/REC-SVG-20010904/DTD/svg10.dtd">
<svg version="1.0" xmlns="http://www.w3.org/2000/svg"
 width="400.000000pt" height="400.000000pt" viewBox="0 0 400.000000 400.000000"
 preserveAspectRatio="xMidYMid meet">
<metadata>
Created by potrace 1.15, written by Peter Selinger 2001-2017
</metadata>
<g transform="translate(0.000000,400.000000) scale(0.100000,-0.100000)"
fill="#000000" stroke="none">
<path d="M2498 2883 c-53 -31 -94 -61 -91 -66 3 -6 1 -7 -5 -3 -7 4 -56 -19
-109 -50 -54 -31 -110 -63 -126 -71 -15 -8 -25 -19 -22 -24 4 -5 0 -7 -7 -4
-7 3 -107 -51 -223 -118 l-210 -123 -3 -167 c-1 -92 0 -167 2 -167 3 0 58 31
123 68 361 210 471 272 477 272 3 0 6 -80 6 -178 l0 -178 -46 -22 c-28 -14
-42 -27 -38 -34 4 -7 3 -8 -5 -4 -7 4 -95 -41 -209 -107 -108 -63 -221 -128
-250 -144 l-53 -30 25 -17 c14 -9 28 -16 31 -16 3 0 40 -21 83 -48 42 -26 94
-56 115 -67 l38 -20 54 29 c30 15 53 32 50 36 -3 4 1 7 8 6 7 0 119 60 249
134 l237 135 1 518 c0 284 -1 517 -2 517 -2 0 -47 -26 -100 -57z"/>
<path d="M3095 2881 c-55 -33 -119 -71 -142 -85 l-43 -25 0 -166 c0 -92 3
-165 8 -163 52 23 141 82 135 90 -3 7 -1 8 6 4 6 -4 40 9 76 30 l65 38 0 168
c0 92 -1 168 -2 168 -2 0 -48 -27 -103 -59z"/>
<path d="M3145 2214 c-22 -13 -39 -29 -37 -35 1 -6 -2 -8 -8 -4 -6 3 -51 -17
-100 -45 l-90 -52 -2 -176 -3 -176 -160 -93 c-88 -51 -222 -127 -297 -170
l-138 -78 0 -167 c0 -93 2 -168 4 -168 15 0 680 392 679 399 -2 6 3 8 10 5 7
-2 33 8 57 24 25 15 66 39 93 52 l47 25 0 342 c0 189 -3 343 -7 342 -5 0 -26
-12 -48 -25z"/>
</g>
</svg>
