<?xml version="1.0" standalone="no"?>
<!DOCTYPE svg PUBLIC "-//W3C//DTD SVG 20010904//EN"
 "http://www.w3.org/TR/2001/REC-SVG-20010904/DTD/svg10.dtd">
<svg version="1.0" xmlns="http://www.w3.org/2000/svg"
 width="96" height="96" viewBox="0 0 800.000000 800.000000"
 preserveAspectRatio="xMidYMid meet">
<metadata>
Created by potrace 1.15, written by Peter Selinger 2001-2017
</metadata>
<g transform="translate(0.000000,800.000000) scale(0.100000,-0.100000)"
fill="#000000" stroke="none">
<path d="M4946 5750 c-52 -16 -87 -61 -100 -129 -9 -52 10 -105 64 -173 93
-119 142 -199 160 -267 43 -153 117 -315 170 -368 l31 -32 -33 -128 c-29 -113
-33 -143 -32 -258 0 -208 35 -309 143 -414 108 -103 150 -120 212 -84 29 17
59 75 59 116 0 42 15 51 35 20 30 -45 306 -301 373 -345 52 -34 42 -4 -21 61
-106 110 -256 355 -327 536 -40 100 -46 107 -70 75 -22 -29 -23 -28 -39 28
-11 38 -31 58 -31 31 0 -6 -14 -29 -31 -50 -39 -49 -65 -130 -74 -232 -7 -78
-19 -108 -22 -59 -1 15 -11 61 -23 102 -18 64 -21 93 -17 205 4 113 8 141 36
219 42 122 41 143 -12 205 -56 65 -96 148 -137 281 -41 134 -74 199 -156 306
-80 104 -99 146 -83 175 9 18 18 21 52 17 55 -7 178 -65 246 -116 44 -33 65
-42 110 -47 194 -19 270 -46 428 -151 113 -75 199 -157 284 -270 93 -123 143
-208 180 -301 16 -43 51 -121 76 -173 25 -52 65 -138 88 -190 49 -112 89 -179
113 -187 9 -4 33 -23 52 -43 27 -28 55 -44 120 -65 128 -42 202 -78 293 -143
45 -33 89 -62 97 -66 8 -3 -1 -4 -20 -1 -76 11 -288 -36 -363 -81 -18 -10 -18
-13 6 -60 16 -31 56 -77 108 -125 112 -101 166 -138 279 -193 52 -25 126 -69
164 -98 123 -95 143 -101 108 -31 -36 68 -189 215 -297 285 -55 36 -108 74
-118 86 -19 20 -18 21 20 32 21 6 81 17 133 25 125 19 184 37 188 56 8 43
-145 185 -325 304 -48 32 -108 72 -132 88 -24 16 -73 42 -109 57 l-65 28 -88
184 c-49 100 -108 230 -131 288 -85 213 -287 466 -498 624 -131 98 -345 230
-405 249 -75 25 -137 36 -196 38 -32 1 -64 9 -79 19 -182 124 -303 167 -394
140z"/>
<path d="M5375 5328 c-11 -6 -22 -12 -24 -14 -2 -2 7 -18 21 -36 14 -18 33
-49 43 -68 23 -46 22 -45 40 -30 13 11 18 6 35 -33 26 -59 34 -63 59 -31 33
42 28 93 -12 132 -18 18 -39 32 -46 32 -7 0 -29 14 -48 30 -38 33 -40 34 -68
18z"/>
<path d="M767 3594 c-74 -18 -113 -38 -134 -71 -16 -25 -18 -71 -23 -500 l-5
-473 32 0 c30 0 32 -3 35 -37 l3 -38 120 0 120 0 5 368 5 368 29 -68 c116
-268 249 -548 267 -562 12 -9 41 -35 65 -58 54 -52 104 -67 200 -61 77 5 124
25 156 68 10 14 78 156 150 315 l133 290 5 145 c4 89 7 -21 8 -285 2 -333 -1
-434 -10 -444 -11 -11 -6 -13 29 -8 l42 5 3 -37 3 -36 120 0 120 0 3 455 c1
250 0 469 -3 487 -7 42 -48 90 -91 108 -19 8 -34 18 -34 23 0 15 -90 49 -147
57 -39 5 -68 2 -110 -11 -102 -32 -110 -44 -302 -479 -95 -214 -178 -394 -183
-400 -11 -10 -10 -6 15 56 9 24 -6 65 -128 350 -163 379 -158 372 -328 467
-47 25 -86 27 -170 6z"/>
<path d="M4570 3520 l0 -70 -345 0 c-445 0 -435 4 -435 -155 0 -86 1 -88 34
-121 20 -20 44 -34 58 -34 23 0 24 2 20 70 -5 86 2 116 31 132 16 10 116 14
382 18 l360 5 3 82 3 82 -48 3 c-46 3 -48 4 -45 31 2 15 -1 27 -7 27 -7 0 -11
-27 -11 -70z"/>
<path d="M6180 3180 l0 -412 29 -28 c25 -25 78 -50 84 -39 1 2 1 190 -1 417
l-2 412 -45 0 c-41 0 -45 2 -45 24 0 14 -4 28 -10 31 -7 4 -10 -133 -10 -405z"/>
<path d="M5664 3545 c58 -22 103 -61 128 -108 20 -40 21 -57 23 -327 2 -396
-3 -423 -88 -479 -20 -13 -37 -30 -37 -36 0 -6 43 -50 95 -96 l96 -84 -111 -3
c-126 -3 -113 -8 -230 103 l-56 53 -226 -6 c-296 -6 -382 9 -471 88 -61 53
-42 26 31 -45 126 -122 185 -138 508 -134 l241 3 84 -77 84 -77 137 0 c76 0
138 3 138 8 0 4 -45 50 -101 102 l-102 95 36 25 c20 14 46 43 59 65 22 39 23
48 26 350 3 203 0 327 -7 361 -14 62 -57 115 -125 155 -28 17 -64 39 -81 49
-16 10 -43 21 -60 24 -24 5 -22 3 9 -9z"/>
<path d="M5025 3431 c-82 -37 -80 -29 -83 -335 -4 -335 0 -353 88 -390 l35
-14 -3 303 -3 303 27 21 c47 37 95 43 320 39 118 -2 214 0 214 4 0 19 -56 69
-88 78 -20 5 -134 10 -252 10 -187 0 -220 -3 -255 -19z"/>
<path d="M3293 3273 l-103 -4 -2 -292 -3 -291 -50 4 c-27 3 -146 5 -262 5
l-213 0 -2 260 -3 260 -46 3 c-43 3 -46 5 -41 27 l4 25 -111 0 -111 0 0 -287
0 -287 78 -73 c135 -127 191 -143 519 -143 l232 0 4 38 c3 32 4 30 5 -13 2
-54 -13 -86 -51 -106 -15 -9 -129 -11 -399 -10 l-377 2 -5 -23 c-3 -13 -7 -49
-9 -80 l-4 -58 39 0 c37 0 38 -1 38 -36 l0 -35 418 3 c397 3 420 5 473 25 76
28 129 65 159 110 l25 37 3 443 3 443 -46 0 c-43 0 -45 1 -45 30 0 17 -3 29
-7 28 -5 -1 -54 -4 -110 -5z"/>
<path d="M3600 3143 c0 -4 33 -39 73 -77 121 -116 187 -135 475 -140 218 -3
225 -1 176 47 -36 37 -100 47 -292 47 -228 0 -325 25 -401 100 -17 18 -31 28
-31 23z"/>
<path d="M4340 3127 c0 -2 27 -14 60 -26 66 -24 123 -68 146 -112 22 -44 19
-222 -5 -276 -24 -52 -84 -96 -170 -125 -62 -21 -87 -22 -425 -25 -198 -2
-362 -6 -365 -8 -2 -3 12 -5 32 -5 34 0 36 -2 39 -37 l3 -38 340 -3 c211 -2
364 1 403 8 121 21 215 77 253 152 18 35 20 55 17 167 -4 148 -13 169 -106
226 -91 56 -222 116 -222 102z"/>
<path d="M7300 2842 c76 -38 105 -146 60 -220 -22 -35 -88 -72 -130 -72 -36 0
-105 34 -124 61 -9 13 -16 19 -16 14 0 -6 12 -22 26 -35 14 -14 41 -42 61 -62
63 -66 143 -84 219 -49 111 51 136 205 46 281 -57 48 -140 100 -159 100 -11 0
-4 -7 17 -18z"/>
<path d="M6000 2694 c0 -4 31 -38 68 -75 135 -134 202 -149 668 -149 l324 0 0
85 0 85 -45 0 c-43 0 -45 1 -45 30 0 17 -4 30 -10 30 -6 0 -10 -30 -10 -71 l0
-71 -347 5 c-357 5 -401 9 -497 51 -21 9 -54 32 -72 52 -19 19 -34 32 -34 28z"/>
</g>
</svg>
